<svg width="19" height="19" viewBox="0 0 19 19" fill="none" xmlns="http://www.w3.org/2000/svg">
<path d="M12.5955 19H15.6933C16.2612 19 16.7259 18.4866 16.7259 17.8592V9.87361H18.4813C18.9563 9.87361 19.1835 9.22336 18.8221 8.88112L10.1895 0.290904C9.79716 -0.0969679 9.19825 -0.0969679 8.80586 0.290904L0.173324 8.88112C-0.17776 9.22336 0.0390859 9.87361 0.514082 9.87361H2.2695V17.8592C2.2695 18.4866 2.73417 19 3.3021 19H6.39991C6.39991 19 10.158 19 12.5955 19Z" fill="black"/>
<path d="M5.91987 11V5.18182H9.84032V6.19602H7.14998V7.58239H9.63862V8.59659H7.14998V9.9858H9.85168V11H5.91987Z" fill="white"/>
<path d="M9.2442 17.7168V16.8305L11.3152 14.9129C11.4914 14.7424 11.6391 14.589 11.7584 14.4526C11.8796 14.3163 11.9715 14.1828 12.034 14.0521C12.0965 13.9195 12.1277 13.7765 12.1277 13.6231C12.1277 13.4526 12.0889 13.3059 12.0113 13.1828C11.9336 13.0578 11.8275 12.9621 11.6931 12.8958C11.5586 12.8276 11.4061 12.7935 11.2357 12.7935C11.0577 12.7935 10.9023 12.8295 10.7698 12.9015C10.6372 12.9735 10.5349 13.0767 10.463 13.2112C10.391 13.3456 10.355 13.5057 10.355 13.6913H9.18739C9.18739 13.3106 9.27356 12.9801 9.44591 12.6998C9.61826 12.4195 9.85973 12.2026 10.1703 12.0492C10.4809 11.8958 10.8389 11.8191 11.2442 11.8191C11.6609 11.8191 12.0236 11.893 12.3323 12.0407C12.6429 12.1865 12.8844 12.3892 13.0567 12.6487C13.2291 12.9081 13.3152 13.2055 13.3152 13.5407C13.3152 13.7604 13.2717 13.9773 13.1845 14.1913C13.0993 14.4053 12.9469 14.643 12.7272 14.9043C12.5075 15.1638 12.1978 15.4754 11.7982 15.839L10.9488 16.6714V16.7112H13.3919V17.7168H9.2442Z" fill="white"/>
<path d="M7.64658 15.8895C7.24506 15.8895 6.88711 15.8157 6.57272 15.668C6.26022 15.5202 6.01211 15.3166 5.8284 15.0572C5.64468 14.7977 5.54904 14.5003 5.54147 14.1651H6.73465C6.7479 14.3905 6.8426 14.5733 7.01874 14.7134C7.19487 14.8536 7.40415 14.9236 7.64658 14.9236C7.83976 14.9236 8.01022 14.881 8.15794 14.7958C8.30756 14.7087 8.42404 14.5884 8.50737 14.435C8.5926 14.2797 8.63522 14.1017 8.63522 13.9009C8.63522 13.6964 8.59165 13.5164 8.50453 13.3611C8.41931 13.2058 8.30093 13.0846 8.14942 12.9975C7.9979 12.9104 7.82461 12.8659 7.62953 12.864C7.45908 12.864 7.29336 12.899 7.13237 12.9691C6.97328 13.0392 6.84923 13.1348 6.76022 13.256L5.66647 13.06L5.94203 9.99182H9.49885V10.9975H6.95624L6.80567 12.4549H6.83976C6.94203 12.3109 7.09639 12.1916 7.30283 12.0969C7.50927 12.0022 7.74033 11.9549 7.99601 11.9549C8.34639 11.9549 8.65889 12.0373 8.93351 12.202C9.20813 12.3668 9.42499 12.5931 9.58408 12.881C9.74317 13.167 9.82177 13.4966 9.81987 13.8697C9.82177 14.2617 9.73086 14.6102 9.54715 14.9151C9.36533 15.2181 9.11059 15.4568 8.78294 15.631C8.45718 15.8034 8.0784 15.8895 7.64658 15.8895Z" fill="white"/>
<path d="M12.4619 7.66511C12.4392 7.43594 12.3417 7.25791 12.1693 7.13102C11.997 7.00413 11.7631 6.94068 11.4676 6.94068C11.2668 6.94068 11.0973 6.96909 10.9591 7.02591C10.8208 7.08083 10.7148 7.15754 10.6409 7.25602C10.5689 7.35451 10.5329 7.46625 10.5329 7.59125C10.5292 7.69541 10.5509 7.78632 10.5983 7.86397C10.6475 7.94163 10.7148 8.00886 10.8 8.06568C10.8852 8.1206 10.9837 8.1689 11.0954 8.21057C11.2072 8.25034 11.3265 8.28443 11.4534 8.31284L11.9761 8.43784C12.2299 8.49466 12.4629 8.57041 12.675 8.66511C12.8871 8.75981 13.0708 8.87629 13.2261 9.01454C13.3814 9.1528 13.5017 9.31568 13.5869 9.50318C13.674 9.69068 13.7185 9.90564 13.7204 10.1481C13.7185 10.5041 13.6276 10.8128 13.4477 11.0742C13.2697 11.3337 13.0121 11.5354 12.675 11.6793C12.3398 11.8214 11.9354 11.8924 11.4619 11.8924C10.9922 11.8924 10.5831 11.8204 10.2346 11.6765C9.88806 11.5325 9.61722 11.3195 9.42215 11.0373C9.22897 10.7532 9.12764 10.4019 9.11817 9.98329H10.3085C10.3218 10.1784 10.3776 10.3412 10.4761 10.4719C10.5765 10.6007 10.71 10.6983 10.8767 10.7645C11.0453 10.8289 11.2356 10.8611 11.4477 10.8611C11.656 10.8611 11.8369 10.8308 11.9903 10.7702C12.1456 10.7096 12.2659 10.6253 12.3511 10.5174C12.4364 10.4094 12.479 10.2854 12.479 10.1452C12.479 10.0145 12.4401 9.90469 12.3625 9.81568C12.2867 9.72666 12.175 9.65091 12.0273 9.58841C11.8814 9.52591 11.7024 9.46909 11.4903 9.41795L10.8568 9.25886C10.3663 9.13954 9.97897 8.95299 9.69487 8.6992C9.41078 8.44541 9.26968 8.10356 9.27158 7.67363C9.26968 7.32136 9.36343 7.0136 9.55283 6.75034C9.74412 6.48708 10.0064 6.28159 10.3398 6.13386C10.6731 5.98613 11.0519 5.91227 11.4761 5.91227C11.9079 5.91227 12.2848 5.98613 12.6068 6.13386C12.9307 6.28159 13.1826 6.48708 13.3625 6.75034C13.5424 7.0136 13.6352 7.31852 13.6409 7.66511H12.4619Z" fill="white"/>
</svg>
